<svg xmlns="http://www.w3.org/2000/svg" width="940" height="620" viewBox="0 0 940 620" font-family="Malgun Gothic, Segoe UI, sans-serif"><rect width="940" height="620" fill="#0b1220"/><rect x="0" y="0" width="64" height="9999" rx="0" fill="#0f1830" stroke="#27324d" stroke-width="1"/><rect x="16" y="16" width="32" height="32" rx="8" fill="#2a1b46" stroke="#A855F7" stroke-width="1"/><text x="32" y="37" font-size="11" fill="#A855F7" font-weight="700" text-anchor="middle">TPD</text><path d="M24 78 H40 a2 2 0 0 1 2 2 V96 a2 2 0 0 1 -2 2 H24 a2 2 0 0 1 -2 -2 V82 Z" fill="none" stroke="#A855F7" stroke-width="1.8" stroke-linejoin="round"/><circle cx="32" cy="126" r="9" fill="none" stroke="#8a97ad" stroke-width="1.8"/><circle cx="32" cy="122" r="0.7" fill="#8a97ad"/><path d="M32 125v5" stroke="#8a97ad" stroke-width="1.8" stroke-linecap="round"/><text x="88" y="30" font-size="12" fill="#A855F7" font-weight="600" text-anchor="start">← D3_10</text><circle cx="142" cy="26" r="11" fill="#A855F7" stroke="#fff" stroke-width="1.5"/><text x="142" y="30" font-size="12" fill="#fff" font-weight="700" text-anchor="middle">1</text><text x="88" y="58" font-size="20" fill="#E2E8F0" font-weight="700" text-anchor="start">dBET6</text><rect x="178" y="46" width="38" height="18" rx="9" fill="#231b3a" stroke="#27324d" stroke-width="1"/><text x="197.0" y="59" font-size="11" fill="#A855F7" font-weight="400" text-anchor="middle">BRD2</text><rect x="222" y="46" width="38" height="18" rx="9" fill="#1e2942" stroke="#27324d" stroke-width="1"/><text x="241.0" y="59" font-size="11" fill="#aeb9cb" font-weight="400" text-anchor="middle">BRD3</text><rect x="266" y="46" width="38" height="18" rx="9" fill="#1e2942" stroke="#27324d" stroke-width="1"/><text x="285.0" y="59" font-size="11" fill="#aeb9cb" font-weight="400" text-anchor="middle">BRD4</text><circle cx="184" cy="42" r="11" fill="#A855F7" stroke="#fff" stroke-width="1.5"/><text x="184" y="46" font-size="12" fill="#fff" font-weight="700" text-anchor="middle">2</text><rect x="822" y="42" width="94" height="24" rx="10" fill="#16203a" stroke="#27324d" stroke-width="1"/><text x="869" y="58" font-size="11" fill="#E2E8F0" font-weight="600" text-anchor="middle">Export ⬇</text><circle cx="910" cy="46" r="11" fill="#A855F7" stroke="#fff" stroke-width="1.5"/><text x="910" y="50" font-size="12" fill="#fff" font-weight="700" text-anchor="middle">3</text><rect x="88" y="80" width="199" height="56" rx="10" fill="#131c33" stroke="#27324d" stroke-width="1"/><circle cx="102" cy="96" r="4" fill="#F59E0B"/><text x="114" y="100" font-size="10" fill="#8a97ad" font-weight="400" text-anchor="start">GR score</text><text x="102" y="124" font-size="15" fill="#E2E8F0" font-weight="700" text-anchor="start">0.12</text><rect x="297" y="80" width="199" height="56" rx="10" fill="#131c33" stroke="#27324d" stroke-width="1"/><circle cx="311" cy="96" r="4" fill="#F59E0B"/><text x="323" y="100" font-size="10" fill="#8a97ad" font-weight="400" text-anchor="start">Effect</text><text x="311" y="124" font-size="15" fill="#E2E8F0" font-weight="700" text-anchor="start">Cytostatic</text><rect x="506" y="80" width="199" height="56" rx="10" fill="#131c33" stroke="#27324d" stroke-width="1"/><circle cx="520" cy="96" r="4" fill="#185FA5"/><text x="532" y="100" font-size="10" fill="#8a97ad" font-weight="400" text-anchor="start">Target</text><text x="520" y="124" font-size="15" fill="#E2E8F0" font-weight="700" text-anchor="start">BRD2</text><rect x="715" y="80" width="199" height="56" rx="10" fill="#131c33" stroke="#27324d" stroke-width="1"/><circle cx="729" cy="96" r="4" fill="#22c55e"/><text x="741" y="100" font-size="10" fill="#8a97ad" font-weight="400" text-anchor="start">Community</text><text x="729" y="124" font-size="15" fill="#E2E8F0" font-weight="700" text-anchor="start">c94</text><circle cx="279" cy="90" r="11" fill="#A855F7" stroke="#fff" stroke-width="1.5"/><text x="279" y="94" font-size="12" fill="#fff" font-weight="700" text-anchor="middle">4</text><rect x="88" y="150" width="404" height="130" rx="10" fill="#131c33" stroke="#27324d" stroke-width="1"/><text x="102" y="172" font-size="12" fill="#E2E8F0" font-weight="700" text-anchor="start">Target Landscape</text><circle cx="218" cy="168" r="6.5" fill="none" stroke="#8a97ad" stroke-width="1.2"/><text x="218" y="171.5" font-size="9" fill="#8a97ad" text-anchor="middle">i</text><rect x="446" y="160" width="36" height="16" rx="8" fill="#16203a" stroke="#27324d" stroke-width="1"/><text x="464" y="172" font-size="8.5" fill="#aeb9cb" font-weight="400" text-anchor="middle">CSV⬇</text><circle cx="128" cy="220" r="3" fill="#F59E0B"/><circle cx="158" cy="205" r="3" fill="#F59E0B"/><circle cx="198" cy="230" r="3" fill="#F59E0B"/><circle cx="238" cy="210" r="3" fill="#F59E0B"/><circle cx="278" cy="225" r="3" fill="#F59E0B"/><circle cx="244" cy="168" r="11" fill="#A855F7" stroke="#fff" stroke-width="1.5"/><text x="244" y="172" font-size="12" fill="#fff" font-weight="700" text-anchor="middle">5</text><circle cx="464" cy="168" r="11" fill="#A855F7" stroke="#fff" stroke-width="1.5"/><text x="464" y="172" font-size="12" fill="#fff" font-weight="700" text-anchor="middle">11</text><rect x="512" y="150" width="404" height="130" rx="10" fill="#131c33" stroke="#27324d" stroke-width="1"/><text x="526" y="172" font-size="12" fill="#E2E8F0" font-weight="700" text-anchor="start">PPI Network</text><circle cx="607" cy="168" r="6.5" fill="none" stroke="#8a97ad" stroke-width="1.2"/><text x="607" y="171.5" font-size="9" fill="#8a97ad" text-anchor="middle">i</text><rect x="870" y="160" width="36" height="16" rx="8" fill="#16203a" stroke="#27324d" stroke-width="1"/><text x="888" y="172" font-size="8.5" fill="#aeb9cb" font-weight="400" text-anchor="middle">CSV⬇</text><line x1="617" y1="222" x2="601" y2="239" stroke="#64748b" stroke-width="0.7"/><line x1="617" y1="222" x2="574" y2="234" stroke="#64748b" stroke-width="0.7"/><line x1="617" y1="222" x2="570" y2="214" stroke="#64748b" stroke-width="0.7"/><line x1="617" y1="222" x2="594" y2="204" stroke="#64748b" stroke-width="0.7"/><line x1="601" y1="239" x2="574" y2="234" stroke="#64748b" stroke-width="0.7"/><line x1="601" y1="239" x2="570" y2="214" stroke="#64748b" stroke-width="0.7"/><line x1="601" y1="239" x2="594" y2="204" stroke="#64748b" stroke-width="0.7"/><line x1="574" y1="234" x2="570" y2="214" stroke="#64748b" stroke-width="0.7"/><line x1="574" y1="234" x2="594" y2="204" stroke="#64748b" stroke-width="0.7"/><line x1="570" y1="214" x2="594" y2="204" stroke="#64748b" stroke-width="0.7"/><circle cx="617" cy="222" r="4" fill="#185FA5"/><circle cx="601" cy="239" r="4" fill="#185FA5"/><circle cx="574" cy="234" r="4" fill="#185FA5"/><circle cx="570" cy="214" r="4" fill="#185FA5"/><circle cx="594" cy="204" r="4" fill="#185FA5"/><circle cx="633" cy="168" r="11" fill="#A855F7" stroke="#fff" stroke-width="1.5"/><text x="633" y="172" font-size="12" fill="#fff" font-weight="700" text-anchor="middle">6</text><rect x="88" y="294" width="404" height="130" rx="10" fill="#131c33" stroke="#27324d" stroke-width="1"/><text x="102" y="316" font-size="12" fill="#E2E8F0" font-weight="700" text-anchor="start">Pathway Enrichment</text><circle cx="232" cy="312" r="6.5" fill="none" stroke="#8a97ad" stroke-width="1.2"/><text x="232" y="315.5" font-size="9" fill="#8a97ad" text-anchor="middle">i</text><rect x="446" y="304" width="36" height="16" rx="8" fill="#16203a" stroke="#27324d" stroke-width="1"/><text x="464" y="316" font-size="8.5" fill="#aeb9cb" font-weight="400" text-anchor="middle">CSV⬇</text><rect x="128" y="338" width="108" height="9" rx="2" fill="#A855F7" opacity="0.9"/><rect x="128" y="354" width="84" height="9" rx="2" fill="#A855F7" opacity="0.78"/><rect x="128" y="370" width="66" height="9" rx="2" fill="#A855F7" opacity="0.66"/><rect x="128" y="386" width="48" height="9" rx="2" fill="#A855F7" opacity="0.54"/><circle cx="258" cy="312" r="11" fill="#A855F7" stroke="#fff" stroke-width="1.5"/><text x="258" y="316" font-size="12" fill="#fff" font-weight="700" text-anchor="middle">7</text><rect x="512" y="294" width="404" height="130" rx="10" fill="#131c33" stroke="#27324d" stroke-width="1"/><text x="526" y="316" font-size="12" fill="#E2E8F0" font-weight="700" text-anchor="start">Time-lapse Imaging</text><circle cx="656" cy="312" r="6.5" fill="none" stroke="#8a97ad" stroke-width="1.2"/><text x="656" y="315.5" font-size="9" fill="#8a97ad" text-anchor="middle">i</text><rect x="870" y="304" width="36" height="16" rx="8" fill="#16203a" stroke="#27324d" stroke-width="1"/><text x="888" y="316" font-size="8.5" fill="#aeb9cb" font-weight="400" text-anchor="middle">CSV⬇</text><rect x="552" y="338" width="46" height="46" rx="4" fill="#1a2238" stroke="#27324d" stroke-width="1"/><rect x="604" y="338" width="46" height="46" rx="4" fill="#1a2238" stroke="#27324d" stroke-width="1"/><rect x="656" y="338" width="46" height="46" rx="4" fill="#1a2238" stroke="#27324d" stroke-width="1"/><circle cx="682" cy="312" r="11" fill="#A855F7" stroke="#fff" stroke-width="1.5"/><text x="682" y="316" font-size="12" fill="#fff" font-weight="700" text-anchor="middle">8</text><rect x="88" y="438" width="404" height="130" rx="10" fill="#131c33" stroke="#27324d" stroke-width="1"/><text x="102" y="460" font-size="12" fill="#E2E8F0" font-weight="700" text-anchor="start">Phenotypic Profiling</text><circle cx="246" cy="456" r="6.5" fill="none" stroke="#8a97ad" stroke-width="1.2"/><text x="246" y="459.5" font-size="9" fill="#8a97ad" text-anchor="middle">i</text><rect x="446" y="448" width="36" height="16" rx="8" fill="#16203a" stroke="#27324d" stroke-width="1"/><text x="464" y="460" font-size="8.5" fill="#aeb9cb" font-weight="400" text-anchor="middle">CSV⬇</text><polyline points="128,533 158,508 198,500 248,496" fill="none" stroke="#A855F7" stroke-width="1.8"/><line x1="128" y1="512" x2="268" y2="512" stroke="#64748b" stroke-dasharray="3" stroke-width="0.8"/><circle cx="272" cy="456" r="11" fill="#A855F7" stroke="#fff" stroke-width="1.5"/><text x="272" y="460" font-size="12" fill="#fff" font-weight="700" text-anchor="middle">9</text><rect x="512" y="438" width="404" height="130" rx="10" fill="#131c33" stroke="#27324d" stroke-width="1"/><text x="526" y="460" font-size="12" fill="#E2E8F0" font-weight="700" text-anchor="start">Mechanistic Signatures</text><circle cx="684" cy="456" r="6.5" fill="none" stroke="#8a97ad" stroke-width="1.2"/><text x="684" y="459.5" font-size="9" fill="#8a97ad" text-anchor="middle">i</text><rect x="870" y="448" width="36" height="16" rx="8" fill="#16203a" stroke="#27324d" stroke-width="1"/><text x="888" y="460" font-size="8.5" fill="#aeb9cb" font-weight="400" text-anchor="middle">CSV⬇</text><rect x="552" y="486" width="18" height="11" rx="2" fill="#F59E0B"/><rect x="574" y="486" width="18" height="11" rx="2" fill="#F59E0B"/><rect x="596" y="486" width="18" height="11" rx="2" fill="#F59E0B"/><rect x="618" y="486" width="18" height="11" rx="2" fill="#F59E0B"/><rect x="640" y="486" width="18" height="11" rx="2" fill="#1a2238"/><rect x="552" y="504" width="18" height="11" rx="2" fill="#F59E0B"/><rect x="574" y="504" width="18" height="11" rx="2" fill="#F59E0B"/><rect x="596" y="504" width="18" height="11" rx="2" fill="#F59E0B"/><rect x="618" y="504" width="18" height="11" rx="2" fill="#1a2238"/><rect x="640" y="504" width="18" height="11" rx="2" fill="#1a2238"/><rect x="552" y="522" width="18" height="11" rx="2" fill="#F59E0B"/><rect x="574" y="522" width="18" height="11" rx="2" fill="#F59E0B"/><rect x="596" y="522" width="18" height="11" rx="2" fill="#1a2238"/><rect x="618" y="522" width="18" height="11" rx="2" fill="#1a2238"/><rect x="640" y="522" width="18" height="11" rx="2" fill="#1a2238"/><circle cx="710" cy="456" r="11" fill="#A855F7" stroke="#fff" stroke-width="1.5"/><text x="710" y="460" font-size="12" fill="#fff" font-weight="700" text-anchor="middle">10</text></svg>