<svg xmlns="http://www.w3.org/2000/svg" width="960" height="820" viewBox="0 0 960 820" font-family="Malgun Gothic, Segoe UI, sans-serif"><rect width="960" height="820" fill="#0b1220"/><rect x="0" y="0" width="64" height="820" rx="0" fill="#0f1830" stroke="#27324d" stroke-width="1" opacity="1"/><rect x="16" y="16" width="32" height="32" rx="8" fill="#2a1b46" stroke="#A855F7" stroke-width="1" opacity="1"/><text x="32" y="37" font-size="11" fill="#A855F7" font-weight="700" text-anchor="middle">TPD</text><path d="M24 78 H40 a2 2 0 0 1 2 2 V96 a2 2 0 0 1 -2 2 H24 a2 2 0 0 1 -2 -2 V82 Z" fill="none" stroke="#A855F7" stroke-width="1.8" stroke-linejoin="round"/><circle cx="32" cy="126" r="9" fill="none" stroke="#8a97ad" stroke-width="1.8"/><circle cx="32" cy="122" r="0.7" fill="#8a97ad"/><path d="M32 125v5" stroke="#8a97ad" stroke-width="1.8" stroke-linecap="round"/><rect x="80" y="12" width="864" height="118" rx="10" fill="#0f1830" stroke="#27324d" stroke-width="1" opacity="1"/><text x="94" y="38" font-size="12" fill="#A855F7" font-weight="600" text-anchor="start">← Back to Plate D3_10</text><circle cx="238" cy="34" r="11" fill="#A855F7" stroke="#fff" stroke-width="1.5"/><text x="238" y="38" font-size="12" fill="#fff" font-weight="700" text-anchor="middle">1</text><rect x="810" y="22" width="118" height="26" rx="10" fill="#16203a" stroke="#27324d" stroke-width="1" opacity="1"/><text x="869" y="39" font-size="11" fill="#E2E8F0" font-weight="600" text-anchor="middle">Export ⬇</text><circle cx="922" cy="26" r="11" fill="#A855F7" stroke="#fff" stroke-width="1.5"/><text x="922" y="30" font-size="12" fill="#fff" font-weight="700" text-anchor="middle">3</text><text x="94" y="82" font-size="26" fill="#E2E8F0" font-weight="700" text-anchor="start">dBET6</text><text x="94" y="108" font-size="11" fill="#8a97ad" font-weight="400" text-anchor="start">Target</text><rect x="146" y="98" width="40" height="18" rx="9" fill="#231b3a" stroke="#27324d" stroke-width="1" opacity="1"/><text x="166.0" y="111" font-size="11" fill="#A855F7" font-weight="400" text-anchor="middle">BRD2</text><rect x="192" y="98" width="40" height="18" rx="9" fill="#1e2942" stroke="#27324d" stroke-width="1" opacity="1"/><text x="212.0" y="111" font-size="11" fill="#aeb9cb" font-weight="400" text-anchor="middle">BRD3</text><rect x="238" y="98" width="40" height="18" rx="9" fill="#1e2942" stroke="#27324d" stroke-width="1" opacity="1"/><text x="258.0" y="111" font-size="11" fill="#aeb9cb" font-weight="400" text-anchor="middle">BRD4</text><circle cx="290" cy="107" r="11" fill="#A855F7" stroke="#fff" stroke-width="1.5"/><text x="290" y="111" font-size="12" fill="#fff" font-weight="700" text-anchor="middle">2</text><text x="308" y="108" font-size="10" fill="#8a97ad" font-weight="400" text-anchor="start">· BET bromodomain degrader</text><rect x="88" y="142" width="848" height="52" rx="10" fill="#131c33" stroke="#27324d" stroke-width="1" opacity="1"/><text x="102" y="162" font-size="11" fill="#8a97ad" font-weight="700" text-anchor="start">Executive Summary</text><text x="102" y="182" font-size="11" fill="#aeb9cb" font-weight="400" text-anchor="start">dBET6 degrades BRD2/3/4 → cytostatic shift; community c94 enriched for transcription/chromatin.</text><circle cx="918" cy="154" r="11" fill="#A855F7" stroke="#fff" stroke-width="1.5"/><text x="918" y="158" font-size="12" fill="#fff" font-weight="700" text-anchor="middle">4</text><rect x="88" y="206" width="204" height="54" rx="10" fill="#131c33" stroke="#27324d" stroke-width="1" opacity="1"/><circle cx="101" cy="222" r="4" fill="#F59E0B"/><text x="112" y="226" font-size="9.5" fill="#8a97ad" font-weight="400" text-anchor="start">Phenotype Shift</text><text x="101" y="250" font-size="15" fill="#E2E8F0" font-weight="700" text-anchor="start">High</text><rect x="302" y="206" width="204" height="54" rx="10" fill="#131c33" stroke="#27324d" stroke-width="1" opacity="1"/><circle cx="315" cy="222" r="4" fill="#F59E0B"/><text x="326" y="226" font-size="9.5" fill="#8a97ad" font-weight="400" text-anchor="start">Cell Viability</text><text x="315" y="250" font-size="15" fill="#E2E8F0" font-weight="700" text-anchor="start">0.62</text><rect x="516" y="206" width="204" height="54" rx="10" fill="#131c33" stroke="#27324d" stroke-width="1" opacity="1"/><circle cx="529" cy="222" r="4" fill="#22c55e"/><text x="540" y="226" font-size="9.5" fill="#8a97ad" font-weight="400" text-anchor="start">Target Confidence</text><text x="529" y="250" font-size="15" fill="#E2E8F0" font-weight="700" text-anchor="start">0.91</text><rect x="730" y="206" width="204" height="54" rx="10" fill="#131c33" stroke="#27324d" stroke-width="1" opacity="1"/><circle cx="743" cy="222" r="4" fill="#22c55e"/><text x="754" y="226" font-size="9.5" fill="#8a97ad" font-weight="400" text-anchor="start">Toxicity</text><text x="743" y="250" font-size="15" fill="#E2E8F0" font-weight="700" text-anchor="start">Low</text><circle cx="284" cy="216" r="11" fill="#A855F7" stroke="#fff" stroke-width="1.5"/><text x="284" y="220" font-size="12" fill="#fff" font-weight="700" text-anchor="middle">5</text><rect x="88" y="274" width="848" height="86" rx="10" fill="#131c33" stroke="#27324d" stroke-width="1" opacity="1"/><text x="102" y="296" font-size="11" fill="#E2E8F0" font-weight="700" text-anchor="start">Mechanistic Signatures</text><circle cx="238" cy="292" r="6.5" fill="none" stroke="#8a97ad" stroke-width="1.2"/><text x="238" y="295.3" font-size="9" fill="#8a97ad" text-anchor="middle">i</text><text x="102" y="318" font-size="9.5" fill="#aeb9cb" font-weight="400" text-anchor="start">Nuclear</text><rect x="198" y="310" width="22" height="11" rx="2" fill="#F59E0B"/><rect x="224" y="310" width="22" height="11" rx="2" fill="#F59E0B"/><rect x="250" y="310" width="22" height="11" rx="2" fill="#F59E0B"/><rect x="276" y="310" width="22" height="11" rx="2" fill="#F59E0B"/><rect x="302" y="310" width="22" height="11" rx="2" fill="#1a2238"/><text x="102" y="334" font-size="9.5" fill="#aeb9cb" font-weight="400" text-anchor="start">Chromatin</text><rect x="198" y="326" width="22" height="11" rx="2" fill="#F59E0B"/><rect x="224" y="326" width="22" height="11" rx="2" fill="#F59E0B"/><rect x="250" y="326" width="22" height="11" rx="2" fill="#F59E0B"/><rect x="276" y="326" width="22" height="11" rx="2" fill="#1a2238"/><rect x="302" y="326" width="22" height="11" rx="2" fill="#1a2238"/><text x="102" y="350" font-size="9.5" fill="#aeb9cb" font-weight="400" text-anchor="start">Transcription</text><rect x="198" y="342" width="22" height="11" rx="2" fill="#F59E0B"/><rect x="224" y="342" width="22" height="11" rx="2" fill="#F59E0B"/><rect x="250" y="342" width="22" height="11" rx="2" fill="#1a2238"/><rect x="276" y="342" width="22" height="11" rx="2" fill="#1a2238"/><rect x="302" y="342" width="22" height="11" rx="2" fill="#1a2238"/><circle cx="918" cy="286" r="11" fill="#A855F7" stroke="#fff" stroke-width="1.5"/><text x="918" y="290" font-size="12" fill="#fff" font-weight="700" text-anchor="middle">6</text><rect x="88" y="372" width="416" height="200" rx="10" fill="#131c33" stroke="#27324d" stroke-width="1" opacity="1"/><text x="102" y="394" font-size="12" fill="#E2E8F0" font-weight="700" text-anchor="start">Target Landscape</text><circle cx="224" cy="390" r="6.5" fill="none" stroke="#8a97ad" stroke-width="1.2"/><text x="224" y="393.3" font-size="9" fill="#8a97ad" text-anchor="middle">i</text><rect x="458" y="382" width="38" height="16" rx="8" fill="#16203a" stroke="#27324d" stroke-width="1" opacity="1"/><text x="477" y="393.5" font-size="8.5" fill="#aeb9cb" font-weight="400" text-anchor="middle">CSV⬇</text><circle cx="88" cy="372" r="11" fill="#A855F7" stroke="#fff" stroke-width="1.5"/><text x="88" y="376" font-size="12" fill="#fff" font-weight="700" text-anchor="middle">7</text><circle cx="148" cy="492" r="3.4" fill="#F59E0B"/><circle cx="198" cy="462" r="3.4" fill="#F59E0B"/><circle cx="258" cy="512" r="3.4" fill="#185FA5"/><circle cx="328" cy="472" r="3.4" fill="#185FA5"/><circle cx="388" cy="502" r="3.4" fill="#185FA5"/><circle cx="438" cy="452" r="3.4" fill="#185FA5"/><text x="146" y="496" font-size="13" fill="#F59E0B">✚</text><rect x="520" y="372" width="416" height="200" rx="10" fill="#131c33" stroke="#27324d" stroke-width="1" opacity="1"/><text x="534" y="394" font-size="12" fill="#E2E8F0" font-weight="700" text-anchor="start">PPI Network</text><circle cx="621" cy="390" r="6.5" fill="none" stroke="#8a97ad" stroke-width="1.2"/><text x="621" y="393.3" font-size="9" fill="#8a97ad" text-anchor="middle">i</text><rect x="890" y="382" width="38" height="16" rx="8" fill="#16203a" stroke="#27324d" stroke-width="1" opacity="1"/><text x="909" y="393.5" font-size="8.5" fill="#aeb9cb" font-weight="400" text-anchor="middle">CSV⬇</text><circle cx="520" cy="372" r="11" fill="#A855F7" stroke="#fff" stroke-width="1.5"/><text x="520" y="376" font-size="12" fill="#fff" font-weight="700" text-anchor="middle">8</text><line x1="766" y1="482" x2="752" y2="504" stroke="#64748b" stroke-width="1.3"/><line x1="766" y1="482" x2="719" y2="509" stroke="#64748b" stroke-width="2.1"/><line x1="766" y1="482" x2="694" y2="494" stroke="#64748b" stroke-width="0.5"/><line x1="766" y1="482" x2="694" y2="470" stroke="#64748b" stroke-width="1.3"/><line x1="766" y1="482" x2="720" y2="455" stroke="#64748b" stroke-width="2.1"/><line x1="752" y1="504" x2="719" y2="509" stroke="#64748b" stroke-width="0.5"/><line x1="752" y1="504" x2="694" y2="494" stroke="#64748b" stroke-width="1.3"/><line x1="752" y1="504" x2="694" y2="470" stroke="#64748b" stroke-width="2.1"/><line x1="752" y1="504" x2="720" y2="455" stroke="#64748b" stroke-width="0.5"/><line x1="719" y1="509" x2="694" y2="494" stroke="#64748b" stroke-width="2.1"/><line x1="719" y1="509" x2="694" y2="470" stroke="#64748b" stroke-width="0.5"/><line x1="719" y1="509" x2="720" y2="455" stroke="#64748b" stroke-width="1.3"/><line x1="694" y1="494" x2="694" y2="470" stroke="#64748b" stroke-width="1.3"/><line x1="694" y1="494" x2="720" y2="455" stroke="#64748b" stroke-width="2.1"/><line x1="694" y1="470" x2="720" y2="455" stroke="#64748b" stroke-width="0.5"/><circle cx="766" cy="482" r="5" fill="#185FA5"/><circle cx="752" cy="504" r="5" fill="#185FA5"/><circle cx="719" cy="509" r="5" fill="#185FA5"/><circle cx="694" cy="494" r="5" fill="#185FA5"/><circle cx="694" cy="470" r="5" fill="#185FA5"/><circle cx="720" cy="455" r="5" fill="#185FA5"/><rect x="88" y="588" width="416" height="200" rx="10" fill="#131c33" stroke="#27324d" stroke-width="1" opacity="1"/><text x="102" y="610" font-size="12" fill="#E2E8F0" font-weight="700" text-anchor="start">Pathway Enrichment</text><circle cx="238" cy="606" r="6.5" fill="none" stroke="#8a97ad" stroke-width="1.2"/><text x="238" y="609.3" font-size="9" fill="#8a97ad" text-anchor="middle">i</text><rect x="458" y="598" width="38" height="16" rx="8" fill="#16203a" stroke="#27324d" stroke-width="1" opacity="1"/><text x="477" y="609.5" font-size="8.5" fill="#aeb9cb" font-weight="400" text-anchor="middle">CSV⬇</text><circle cx="88" cy="588" r="11" fill="#A855F7" stroke="#fff" stroke-width="1.5"/><text x="88" y="592" font-size="12" fill="#fff" font-weight="700" text-anchor="middle">9</text><rect x="128" y="632" width="299" height="14" rx="2" fill="#A855F7" opacity="0.92"/><text x="122" y="643" font-size="8" fill="#aeb9cb" font-weight="400" text-anchor="end">●</text><rect x="128" y="658" width="254" height="14" rx="2" fill="#A855F7" opacity="0.8200000000000001"/><text x="122" y="669" font-size="8" fill="#aeb9cb" font-weight="400" text-anchor="end">●</text><rect x="128" y="684" width="202" height="14" rx="2" fill="#A855F7" opacity="0.72"/><text x="122" y="695" font-size="8" fill="#aeb9cb" font-weight="400" text-anchor="end">●</text><rect x="128" y="710" width="163" height="14" rx="2" fill="#A855F7" opacity="0.62"/><text x="122" y="721" font-size="8" fill="#aeb9cb" font-weight="400" text-anchor="end">●</text><rect x="128" y="736" width="130" height="14" rx="2" fill="#A855F7" opacity="0.52"/><text x="122" y="747" font-size="8" fill="#aeb9cb" font-weight="400" text-anchor="end">●</text><rect x="520" y="588" width="416" height="94" rx="10" fill="#131c33" stroke="#27324d" stroke-width="1" opacity="1"/><text x="532" y="608" font-size="11" fill="#E2E8F0" font-weight="700" text-anchor="start">Time-lapse Imaging</text><circle cx="659.0" cy="604" r="6.5" fill="none" stroke="#8a97ad" stroke-width="1.2"/><text x="659.0" y="607.3" font-size="9" fill="#8a97ad" text-anchor="middle">i</text><circle cx="520" cy="588" r="11" fill="#A855F7" stroke="#fff" stroke-width="1.5"/><text x="520" y="592" font-size="12" fill="#fff" font-weight="700" text-anchor="middle">10</text><rect x="560" y="622" width="62" height="46" rx="4" fill="#1a2238" stroke="#27324d" stroke-width="1" opacity="1"/><rect x="630" y="622" width="62" height="46" rx="4" fill="#1a2238" stroke="#27324d" stroke-width="1" opacity="1"/><rect x="700" y="622" width="62" height="46" rx="4" fill="#1a2238" stroke="#27324d" stroke-width="1" opacity="1"/><line x1="564" y1="662" x2="604" y2="662" stroke="#fff" stroke-width="2"/><text x="564" y="658" font-size="7" fill="#fff" font-weight="400" text-anchor="start">1 mm</text><rect x="520" y="694" width="416" height="94" rx="10" fill="#131c33" stroke="#27324d" stroke-width="1" opacity="1"/><text x="532" y="714" font-size="11" fill="#E2E8F0" font-weight="700" text-anchor="start">Phenotypic Profiling</text><circle cx="672.0" cy="710" r="6.5" fill="none" stroke="#8a97ad" stroke-width="1.2"/><text x="672.0" y="713.3" font-size="9" fill="#8a97ad" text-anchor="middle">i</text><rect x="890" y="704" width="38" height="16" rx="8" fill="#16203a" stroke="#27324d" stroke-width="1" opacity="1"/><text x="909" y="715.5" font-size="8.5" fill="#aeb9cb" font-weight="400" text-anchor="middle">CSV⬇</text><circle cx="520" cy="694" r="11" fill="#A855F7" stroke="#fff" stroke-width="1.5"/><text x="520" y="698" font-size="12" fill="#fff" font-weight="700" text-anchor="middle">11</text><line x1="560" y1="744" x2="916" y2="744" stroke="#64748b" stroke-dasharray="3" stroke-width="0.8"/><polyline points="560,772 610,746 670,738 906,734" fill="none" stroke="#A855F7" stroke-width="1.8"/><circle cx="909" cy="712" r="11" fill="#A855F7" stroke="#fff" stroke-width="1.5"/><text x="909" y="716" font-size="12" fill="#fff" font-weight="700" text-anchor="middle">12</text></svg>