<svg xmlns="http://www.w3.org/2000/svg" width="940" height="560" viewBox="0 0 940 560" font-family="Malgun Gothic, Segoe UI, sans-serif"><rect width="940" height="560" fill="#0b1220"/><rect x="0" y="0" width="64" height="9999" rx="0" fill="#0f1830" stroke="#27324d" stroke-width="1"/><rect x="16" y="16" width="32" height="32" rx="8" fill="#2a1b46" stroke="#A855F7" stroke-width="1"/><text x="32" y="37" font-size="11" fill="#A855F7" font-weight="700" text-anchor="middle">TPD</text><path d="M24 78 H40 a2 2 0 0 1 2 2 V96 a2 2 0 0 1 -2 2 H24 a2 2 0 0 1 -2 -2 V82 Z" fill="none" stroke="#A855F7" stroke-width="1.8" stroke-linejoin="round"/><circle cx="32" cy="126" r="9" fill="none" stroke="#8a97ad" stroke-width="1.8"/><circle cx="32" cy="122" r="0.7" fill="#8a97ad"/><path d="M32 125v5" stroke="#8a97ad" stroke-width="1.8" stroke-linecap="round"/><text x="88" y="34" font-size="12" fill="#A855F7" font-weight="600" text-anchor="start">← Plates</text><circle cx="146" cy="30" r="11" fill="#A855F7" stroke="#fff" stroke-width="1.5"/><text x="146" y="34" font-size="12" fill="#fff" font-weight="700" text-anchor="middle">1</text><text x="88" y="66" font-size="22" fill="#E2E8F0" font-weight="700" text-anchor="start">D3_10</text><text x="178" y="66" font-size="11" fill="#8a97ad" font-weight="400" text-anchor="start">Set D3 · 10 µM · 48 h · U2OS</text><rect x="88" y="86" width="300" height="26" rx="10" fill="#0f1830" stroke="#27324d" stroke-width="1"/><text x="98" y="103" font-size="11" fill="#8a97ad" font-weight="400" text-anchor="start">Search drug · code · target</text><circle cx="373" cy="99" r="11" fill="#A855F7" stroke="#fff" stroke-width="1.5"/><text x="373" y="103" font-size="12" fill="#fff" font-weight="700" text-anchor="middle">2</text><rect x="400" y="86" width="90" height="26" rx="10" fill="#0f1830" stroke="#27324d" stroke-width="1"/><text x="410" y="103" font-size="10" fill="#aeb9cb" font-weight="400" text-anchor="start">All groups</text><rect x="498" y="86" width="90" height="26" rx="10" fill="#0f1830" stroke="#27324d" stroke-width="1"/><text x="508" y="103" font-size="10" fill="#aeb9cb" font-weight="400" text-anchor="start">All effects</text><rect x="596" y="86" width="86" height="26" rx="10" fill="#231b3a" stroke="#A855F7" stroke-width="1"/><text x="608" y="103" font-size="10" fill="#A855F7" font-weight="400" text-anchor="start">✓ Assets only</text><circle cx="676" cy="99" r="11" fill="#A855F7" stroke="#fff" stroke-width="1.5"/><text x="676" y="103" font-size="12" fill="#fff" font-weight="700" text-anchor="middle">3</text><text x="692" y="103" font-size="11" fill="#8a97ad" font-weight="400" text-anchor="start">Reset</text><rect x="790" y="86" width="126" height="26" rx="10" fill="#16203a" stroke="#27324d" stroke-width="1"/><text x="853" y="103" font-size="11" fill="#E2E8F0" font-weight="600" text-anchor="middle">Export plate ⬇</text><circle cx="910" cy="99" r="11" fill="#A855F7" stroke="#fff" stroke-width="1.5"/><text x="910" y="103" font-size="12" fill="#fff" font-weight="700" text-anchor="middle">8</text><rect x="88" y="132" width="828" height="300" rx="10" fill="#0f1830" stroke="#27324d" stroke-width="1"/><text x="96" y="152" font-size="11" fill="#8a97ad" font-weight="600" text-anchor="start">Drug</text><text x="238" y="152" font-size="11" fill="#8a97ad" font-weight="600" text-anchor="start">Group</text><text x="338" y="152" font-size="11" fill="#8a97ad" font-weight="600" text-anchor="start">Targets</text><text x="518" y="152" font-size="11" fill="#8a97ad" font-weight="600" text-anchor="start">GR score</text><text x="608" y="152" font-size="11" fill="#8a97ad" font-weight="600" text-anchor="start">Class</text><text x="708" y="152" font-size="11" fill="#8a97ad" font-weight="600" text-anchor="start">Wells</text><text x="788" y="152" font-size="11" fill="#8a97ad" font-weight="600" text-anchor="start">Asset</text><line x1="88" y1="162" x2="916" y2="162" stroke="#27324d"/><text x="96" y="196" font-size="12" fill="#E2E8F0" font-weight="600" text-anchor="start">dBET6</text><text x="238" y="196" font-size="11" fill="#aeb9cb" font-weight="400" text-anchor="start">BET</text><rect x="338" y="184" width="38" height="18" rx="9" fill="#1e2942" stroke="#27324d" stroke-width="1"/><text x="357.0" y="197" font-size="11" fill="#aeb9cb" font-weight="400" text-anchor="middle">BRD2</text><rect x="381" y="184" width="38" height="18" rx="9" fill="#1e2942" stroke="#27324d" stroke-width="1"/><text x="400.0" y="197" font-size="11" fill="#aeb9cb" font-weight="400" text-anchor="middle">BRD3</text><rect x="424" y="184" width="38" height="18" rx="9" fill="#1e2942" stroke="#27324d" stroke-width="1"/><text x="443.0" y="197" font-size="11" fill="#aeb9cb" font-weight="400" text-anchor="middle">BRD4</text><text x="518" y="196" font-size="12" fill="#aeb9cb" font-weight="400" text-anchor="start">0.12</text><text x="608" y="196" font-size="10" fill="#ef4444" font-weight="400" text-anchor="start">Cytostatic</text><text x="708" y="196" font-size="11" fill="#aeb9cb" font-weight="400" text-anchor="start">2</text><text x="788" y="196" font-size="13" fill="#22c55e" font-weight="400" text-anchor="start">✓</text><line x1="88" y1="218" x2="916" y2="218" stroke="#27324d" stroke-opacity="0.5"/><text x="96" y="260" font-size="12" fill="#E2E8F0" font-weight="600" text-anchor="start">ARV-771</text><text x="238" y="260" font-size="11" fill="#aeb9cb" font-weight="400" text-anchor="start">BET</text><rect x="338" y="248" width="38" height="18" rx="9" fill="#1e2942" stroke="#27324d" stroke-width="1"/><text x="357.0" y="261" font-size="11" fill="#aeb9cb" font-weight="400" text-anchor="middle">BRD2</text><rect x="381" y="248" width="38" height="18" rx="9" fill="#1e2942" stroke="#27324d" stroke-width="1"/><text x="400.0" y="261" font-size="11" fill="#aeb9cb" font-weight="400" text-anchor="middle">BRD3</text><text x="518" y="260" font-size="12" fill="#aeb9cb" font-weight="400" text-anchor="start">-0.21</text><text x="608" y="260" font-size="10" fill="#ef4444" font-weight="400" text-anchor="start">Strong cytotoxic</text><text x="708" y="260" font-size="11" fill="#aeb9cb" font-weight="400" text-anchor="start">2</text><text x="788" y="260" font-size="13" fill="#22c55e" font-weight="400" text-anchor="start">✓</text><line x1="88" y1="282" x2="916" y2="282" stroke="#27324d" stroke-opacity="0.5"/><text x="96" y="324" font-size="12" fill="#E2E8F0" font-weight="600" text-anchor="start">AU-15330</text><text x="238" y="324" font-size="11" fill="#aeb9cb" font-weight="400" text-anchor="start">SWI/SNF</text><rect x="338" y="312" width="59" height="18" rx="9" fill="#1e2942" stroke="#27324d" stroke-width="1"/><text x="367.5" y="325" font-size="11" fill="#aeb9cb" font-weight="400" text-anchor="middle">SMARCA2</text><rect x="402" y="312" width="59" height="18" rx="9" fill="#1e2942" stroke="#27324d" stroke-width="1"/><text x="431.5" y="325" font-size="11" fill="#aeb9cb" font-weight="400" text-anchor="middle">SMARCA4</text><text x="518" y="324" font-size="12" fill="#aeb9cb" font-weight="400" text-anchor="start">0.55</text><text x="608" y="324" font-size="10" fill="#aeb9cb" font-weight="400" text-anchor="start">Growth-permissive</text><text x="708" y="324" font-size="11" fill="#aeb9cb" font-weight="400" text-anchor="start">2</text><text x="788" y="324" font-size="13" fill="#22c55e" font-weight="400" text-anchor="start">✓</text><line x1="88" y1="346" x2="916" y2="346" stroke="#27324d" stroke-opacity="0.5"/><text x="96" y="388" font-size="12" fill="#E2E8F0" font-weight="600" text-anchor="start">CMP98</text><text x="238" y="388" font-size="11" fill="#aeb9cb" font-weight="400" text-anchor="start">control</text><text x="338" y="388" font-size="11" fill="#8a97ad" font-weight="400" text-anchor="start">—</text><text x="518" y="388" font-size="12" fill="#aeb9cb" font-weight="400" text-anchor="start">—</text><text x="608" y="388" font-size="10" fill="#aeb9cb" font-weight="400" text-anchor="start">—</text><text x="708" y="388" font-size="11" fill="#aeb9cb" font-weight="400" text-anchor="start">1</text><text x="788" y="388" font-size="13" fill="#8a97ad" font-weight="400" text-anchor="start">○</text><line x1="88" y1="410" x2="916" y2="410" stroke="#27324d" stroke-opacity="0.5"/><circle cx="126" cy="196" r="11" fill="#A855F7" stroke="#fff" stroke-width="1.5"/><text x="126" y="200" font-size="12" fill="#fff" font-weight="700" text-anchor="middle">4</text><circle cx="368" cy="192" r="11" fill="#A855F7" stroke="#fff" stroke-width="1.5"/><text x="368" y="196" font-size="12" fill="#fff" font-weight="700" text-anchor="middle">5</text><circle cx="536" cy="196" r="11" fill="#A855F7" stroke="#fff" stroke-width="1.5"/><text x="536" y="200" font-size="12" fill="#fff" font-weight="700" text-anchor="middle">6</text><circle cx="794" cy="196" r="11" fill="#A855F7" stroke="#fff" stroke-width="1.5"/><text x="794" y="200" font-size="12" fill="#fff" font-weight="700" text-anchor="middle">7</text></svg>