<svg xmlns="http://www.w3.org/2000/svg" width="940" height="580" viewBox="0 0 940 580" font-family="Malgun Gothic, Segoe UI, sans-serif"><rect width="940" height="580" fill="#0b1220"/><rect x="0" y="0" width="64" height="580" rx="0" fill="#0f1830" stroke="#27324d" stroke-width="1"/><rect x="16" y="16" width="32" height="32" rx="8" fill="#2a1b46" stroke="#A855F7" stroke-width="1"/><text x="32" y="37" font-size="11" fill="#A855F7" font-weight="700" text-anchor="middle">TPD</text><path d="M24 78 H40 a2 2 0 0 1 2 2 V96 a2 2 0 0 1 -2 2 H24 a2 2 0 0 1 -2 -2 V82 Z" fill="none" stroke="#A855F7" stroke-width="1.8" stroke-linejoin="round"/><circle cx="32" cy="126" r="9" fill="none" stroke="#8a97ad" stroke-width="1.8"/><circle cx="32" cy="122" r="0.7" fill="#8a97ad"/><path d="M32 125v5" stroke="#8a97ad" stroke-width="1.8" stroke-linecap="round"/><text x="88" y="30" font-size="12" fill="#A855F7" font-weight="600" text-anchor="start">← Plates</text><circle cx="146" cy="26" r="11" fill="#A855F7" stroke="#fff" stroke-width="1.5"/><text x="146" y="30" font-size="12" fill="#fff" font-weight="700" text-anchor="middle">1</text><text x="88" y="66" font-size="22" fill="#E2E8F0" font-weight="700" text-anchor="start">D3_10</text><text x="178" y="66" font-size="11" fill="#8a97ad" font-weight="400" text-anchor="start">Set D3 · 10 µM · 48 h · U2OS</text><rect x="790" y="48" width="126" height="28" rx="10" fill="#16203a" stroke="#27324d" stroke-width="1"/><text x="853" y="66" font-size="11" fill="#E2E8F0" font-weight="600" text-anchor="middle">Export plate ⬇</text><circle cx="910" cy="52" r="11" fill="#A855F7" stroke="#fff" stroke-width="1.5"/><text x="910" y="56" font-size="12" fill="#fff" font-weight="700" text-anchor="middle">9</text><text x="88" y="102" font-size="10" fill="#8a97ad" font-weight="600" text-anchor="start">Composition</text><rect x="174" y="92" width="334" height="12" fill="#22c55e"/><rect x="508" y="92" width="134" height="12" fill="#ef4444"/><rect x="641" y="92" width="89" height="12" fill="#F59E0B"/><rect x="730" y="92" width="186" height="12" fill="#64748b"/><rect x="174" y="92" width="742" height="12" fill="none" stroke="#27324d"/><rect x="174" y="116" width="8" height="8" rx="2" fill="#22c55e"/><text x="186" y="124" font-size="9" fill="#aeb9cb" font-weight="400" text-anchor="start">Asset Only</text><rect x="304" y="116" width="8" height="8" rx="2" fill="#ef4444"/><text x="316" y="124" font-size="9" fill="#aeb9cb" font-weight="400" text-anchor="start">Cytotoxic</text><rect x="434" y="116" width="8" height="8" rx="2" fill="#F59E0B"/><text x="446" y="124" font-size="9" fill="#aeb9cb" font-weight="400" text-anchor="start">Static</text><rect x="564" y="116" width="8" height="8" rx="2" fill="#64748b"/><text x="576" y="124" font-size="9" fill="#aeb9cb" font-weight="400" text-anchor="start">No Asset</text><circle cx="904" cy="98" r="11" fill="#A855F7" stroke="#fff" stroke-width="1.5"/><text x="904" y="102" font-size="12" fill="#fff" font-weight="700" text-anchor="middle">4</text><rect x="88" y="150" width="300" height="26" rx="10" fill="#0f1830" stroke="#27324d" stroke-width="1"/><text x="98" y="167" font-size="11" fill="#8a97ad" font-weight="400" text-anchor="start">Search drug · code · target</text><circle cx="373" cy="163" r="11" fill="#A855F7" stroke="#fff" stroke-width="1.5"/><text x="373" y="167" font-size="12" fill="#fff" font-weight="700" text-anchor="middle">2</text><rect x="400" y="150" width="90" height="26" rx="10" fill="#0f1830" stroke="#27324d" stroke-width="1"/><text x="410" y="167" font-size="10" fill="#aeb9cb" font-weight="400" text-anchor="start">All groups</text><rect x="498" y="150" width="90" height="26" rx="10" fill="#0f1830" stroke="#27324d" stroke-width="1"/><text x="508" y="167" font-size="10" fill="#aeb9cb" font-weight="400" text-anchor="start">All effects</text><rect x="596" y="150" width="92" height="26" rx="10" fill="#231b3a" stroke="#A855F7" stroke-width="1"/><text x="608" y="167" font-size="10" fill="#A855F7" font-weight="400" text-anchor="start">✓ Assets only</text><circle cx="680" cy="163" r="11" fill="#A855F7" stroke="#fff" stroke-width="1.5"/><text x="680" y="167" font-size="12" fill="#fff" font-weight="700" text-anchor="middle">3</text><text x="700" y="167" font-size="11" fill="#8a97ad" font-weight="400" text-anchor="start">Reset</text><rect x="88" y="192" width="828" height="320" rx="10" fill="#0f1830" stroke="#27324d" stroke-width="1"/><text x="96" y="212" font-size="11" fill="#8a97ad" font-weight="600" text-anchor="start">Drug</text><text x="238" y="212" font-size="11" fill="#8a97ad" font-weight="600" text-anchor="start">Group</text><text x="338" y="212" font-size="11" fill="#8a97ad" font-weight="600" text-anchor="start">Targets</text><text x="528" y="212" font-size="11" fill="#8a97ad" font-weight="600" text-anchor="start">GR score</text><text x="618" y="212" font-size="11" fill="#8a97ad" font-weight="600" text-anchor="start">Class</text><text x="718" y="212" font-size="11" fill="#8a97ad" font-weight="600" text-anchor="start">Wells</text><text x="798" y="212" font-size="11" fill="#8a97ad" font-weight="600" text-anchor="start">Asset</text><line x1="88" y1="222" x2="916" y2="222" stroke="#27324d"/><text x="96" y="260" font-size="12" fill="#E2E8F0" font-weight="600" text-anchor="start">dBET6</text><text x="238" y="260" font-size="11" fill="#aeb9cb" font-weight="400" text-anchor="start">BET</text><rect x="338" y="248" width="40" height="18" rx="9" fill="#1e2942" stroke="#27324d" stroke-width="1"/><text x="358.0" y="261" font-size="11" fill="#aeb9cb" font-weight="400" text-anchor="middle">BRD2</text><rect x="383" y="248" width="40" height="18" rx="9" fill="#1e2942" stroke="#27324d" stroke-width="1"/><text x="403.0" y="261" font-size="11" fill="#aeb9cb" font-weight="400" text-anchor="middle">BRD3</text><rect x="428" y="248" width="40" height="18" rx="9" fill="#1e2942" stroke="#27324d" stroke-width="1"/><text x="448.0" y="261" font-size="11" fill="#aeb9cb" font-weight="400" text-anchor="middle">BRD4</text><text x="528" y="260" font-size="12" fill="#aeb9cb" font-weight="400" text-anchor="start">0.12</text><text x="618" y="260" font-size="10" fill="#ef4444" font-weight="400" text-anchor="start">Cytostatic</text><text x="718" y="260" font-size="11" fill="#aeb9cb" font-weight="400" text-anchor="start">2</text><text x="798" y="260" font-size="13" fill="#22c55e" font-weight="400" text-anchor="start">✓</text><line x1="88" y1="282" x2="916" y2="282" stroke="#27324d" stroke-opacity="0.5"/><text x="96" y="328" font-size="12" fill="#E2E8F0" font-weight="600" text-anchor="start">ARV-771</text><text x="238" y="328" font-size="11" fill="#aeb9cb" font-weight="400" text-anchor="start">BET</text><rect x="338" y="316" width="40" height="18" rx="9" fill="#1e2942" stroke="#27324d" stroke-width="1"/><text x="358.0" y="329" font-size="11" fill="#aeb9cb" font-weight="400" text-anchor="middle">BRD2</text><rect x="383" y="316" width="40" height="18" rx="9" fill="#1e2942" stroke="#27324d" stroke-width="1"/><text x="403.0" y="329" font-size="11" fill="#aeb9cb" font-weight="400" text-anchor="middle">BRD3</text><text x="528" y="328" font-size="12" fill="#aeb9cb" font-weight="400" text-anchor="start">-0.21</text><text x="618" y="328" font-size="10" fill="#ef4444" font-weight="400" text-anchor="start">Strong cytotoxic</text><text x="718" y="328" font-size="11" fill="#aeb9cb" font-weight="400" text-anchor="start">2</text><text x="798" y="328" font-size="13" fill="#22c55e" font-weight="400" text-anchor="start">✓</text><line x1="88" y1="350" x2="916" y2="350" stroke="#27324d" stroke-opacity="0.5"/><text x="96" y="396" font-size="12" fill="#E2E8F0" font-weight="600" text-anchor="start">AU-15330</text><text x="238" y="396" font-size="11" fill="#aeb9cb" font-weight="400" text-anchor="start">SWI/SNF</text><rect x="338" y="384" width="61" height="18" rx="9" fill="#1e2942" stroke="#27324d" stroke-width="1"/><text x="368.5" y="397" font-size="11" fill="#aeb9cb" font-weight="400" text-anchor="middle">SMARCA2</text><rect x="404" y="384" width="61" height="18" rx="9" fill="#1e2942" stroke="#27324d" stroke-width="1"/><text x="434.5" y="397" font-size="11" fill="#aeb9cb" font-weight="400" text-anchor="middle">SMARCA4</text><text x="528" y="396" font-size="12" fill="#aeb9cb" font-weight="400" text-anchor="start">0.55</text><text x="618" y="396" font-size="10" fill="#aeb9cb" font-weight="400" text-anchor="start">Growth-permissive</text><text x="718" y="396" font-size="11" fill="#aeb9cb" font-weight="400" text-anchor="start">2</text><text x="798" y="396" font-size="13" fill="#22c55e" font-weight="400" text-anchor="start">✓</text><line x1="88" y1="418" x2="916" y2="418" stroke="#27324d" stroke-opacity="0.5"/><text x="96" y="464" font-size="12" fill="#E2E8F0" font-weight="600" text-anchor="start">CMP98</text><text x="238" y="464" font-size="11" fill="#aeb9cb" font-weight="400" text-anchor="start">control</text><text x="338" y="464" font-size="11" fill="#8a97ad" font-weight="400" text-anchor="start">—</text><text x="528" y="464" font-size="12" fill="#aeb9cb" font-weight="400" text-anchor="start">—</text><text x="618" y="464" font-size="10" fill="#aeb9cb" font-weight="400" text-anchor="start">—</text><text x="718" y="464" font-size="11" fill="#aeb9cb" font-weight="400" text-anchor="start">1</text><text x="798" y="464" font-size="13" fill="#8a97ad" font-weight="400" text-anchor="start">○</text><line x1="88" y1="486" x2="916" y2="486" stroke="#27324d" stroke-opacity="0.5"/><circle cx="130" cy="260" r="11" fill="#A855F7" stroke="#fff" stroke-width="1.5"/><text x="130" y="264" font-size="12" fill="#fff" font-weight="700" text-anchor="middle">5</text><circle cx="368" cy="256" r="11" fill="#A855F7" stroke="#fff" stroke-width="1.5"/><text x="368" y="260" font-size="12" fill="#fff" font-weight="700" text-anchor="middle">6</text><circle cx="546" cy="260" r="11" fill="#A855F7" stroke="#fff" stroke-width="1.5"/><text x="546" y="264" font-size="12" fill="#fff" font-weight="700" text-anchor="middle">7</text><circle cx="804" cy="260" r="11" fill="#A855F7" stroke="#fff" stroke-width="1.5"/><text x="804" y="264" font-size="12" fill="#fff" font-weight="700" text-anchor="middle">8</text></svg>