<svg xmlns="http://www.w3.org/2000/svg" width="940" height="560" viewBox="0 0 940 560" font-family="Malgun Gothic, Segoe UI, sans-serif"><rect width="940" height="560" fill="#0b1220"/><rect x="0" y="0" width="64" height="9999" rx="0" fill="#0f1830" stroke="#27324d" stroke-width="1"/><rect x="16" y="16" width="32" height="32" rx="8" fill="#2a1b46" stroke="#A855F7" stroke-width="1"/><text x="32" y="37" font-size="11" fill="#A855F7" font-weight="700" text-anchor="middle">TPD</text><path d="M24 78 H40 a2 2 0 0 1 2 2 V96 a2 2 0 0 1 -2 2 H24 a2 2 0 0 1 -2 -2 V82 Z" fill="none" stroke="#A855F7" stroke-width="1.8" stroke-linejoin="round"/><circle cx="32" cy="126" r="9" fill="none" stroke="#8a97ad" stroke-width="1.8"/><circle cx="32" cy="122" r="0.7" fill="#8a97ad"/><path d="M32 125v5" stroke="#8a97ad" stroke-width="1.8" stroke-linecap="round"/><rect x="88" y="24" width="828" height="96" rx="10" fill="#131c33" stroke="#27324d" stroke-width="1"/><text x="108" y="54" font-size="17" fill="#E2E8F0" font-weight="700" text-anchor="start">Target Protein Degradation Experiments</text><text x="108" y="76" font-size="11" fill="#8a97ad" font-weight="400" text-anchor="start">Explore phenotype-driven target degradation experiments and compound outcomes.</text><text x="108" y="104" font-size="12" fill="#aeb9cb" font-weight="600" text-anchor="start">2 Plates · 140 Compounds · 1120 Wells</text><circle cx="388" cy="104" r="11" fill="#A855F7" stroke="#fff" stroke-width="1.5"/><text x="388" y="108" font-size="12" fill="#fff" font-weight="700" text-anchor="middle">1</text><text x="88" y="150" font-size="11" fill="#8a97ad" font-weight="700" text-anchor="start">EXPERIMENT PLATES</text><rect x="258" y="138" width="47" height="20" rx="6" fill="#231b3a" stroke="#27324d" stroke-width="1"/><text x="281.5" y="152" font-size="10" fill="#A855F7" font-weight="600" text-anchor="middle">Title</text><rect x="307" y="138" width="61" height="20" rx="6" fill="#16203a" stroke="#27324d" stroke-width="1"/><text x="337.5" y="152" font-size="10" fill="#aeb9cb" font-weight="600" text-anchor="middle">Created</text><rect x="370" y="138" width="61" height="20" rx="6" fill="#16203a" stroke="#27324d" stroke-width="1"/><text x="400.5" y="152" font-size="10" fill="#aeb9cb" font-weight="600" text-anchor="middle">Updated</text><rect x="433" y="138" width="75" height="20" rx="6" fill="#16203a" stroke="#27324d" stroke-width="1"/><text x="470.5" y="152" font-size="10" fill="#aeb9cb" font-weight="600" text-anchor="middle">Compounds</text><rect x="510" y="138" width="22" height="20" rx="6" fill="#16203a" stroke="#27324d" stroke-width="1"/><text x="521" y="152" font-size="11" fill="#E2E8F0" font-weight="400" text-anchor="middle">↑</text><circle cx="288" cy="128" r="11" fill="#A855F7" stroke="#fff" stroke-width="1.5"/><text x="288" y="132" font-size="12" fill="#fff" font-weight="700" text-anchor="middle">2</text><rect x="540" y="138" width="46" height="20" rx="6" fill="#231b3a" stroke="#27324d" stroke-width="1"/><text x="563" y="152" font-size="10" fill="#A855F7" font-weight="600" text-anchor="middle">Card</text><rect x="588" y="138" width="52" height="20" rx="6" fill="#16203a" stroke="#27324d" stroke-width="1"/><text x="614" y="152" font-size="10" fill="#aeb9cb" font-weight="600" text-anchor="middle">Table</text><circle cx="628" cy="128" r="11" fill="#A855F7" stroke="#fff" stroke-width="1.5"/><text x="628" y="132" font-size="12" fill="#fff" font-weight="700" text-anchor="middle">3</text><rect x="88" y="176" width="404" height="330" rx="10" fill="#131c33" stroke="#27324d" stroke-width="1"/><text x="106" y="214" font-size="22" fill="#E2E8F0" font-weight="700" text-anchor="start">D3_10</text><text x="106" y="238" font-size="11" fill="#8a97ad" font-weight="400" text-anchor="start">Set D3 · Cell U2OS</text><text x="106" y="256" font-size="11" fill="#8a97ad" font-weight="400" text-anchor="start">Dose 10 µM · Observation 48 h</text><text x="106" y="274" font-size="10" fill="#64748b" font-weight="400" text-anchor="start">Created 2026-05-20  Updated 2026-06-04</text><rect x="106" y="296" width="147" height="9" fill="#22c55e"/><rect x="253" y="296" width="92" height="9" fill="#F59E0B"/><rect x="345" y="296" width="74" height="9" fill="#ef4444"/><rect x="419" y="296" width="55" height="9" fill="#64748b"/><rect x="106" y="296" width="368" height="9" fill="none" stroke="#27324d"/><rect x="106" y="314" width="8" height="8" rx="2" fill="#22c55e"/><text x="118" y="322" font-size="9.5" fill="#aeb9cb" font-weight="400" text-anchor="start">Asset Only</text><rect x="207" y="314" width="8" height="8" rx="2" fill="#ef4444"/><text x="219" y="322" font-size="9.5" fill="#aeb9cb" font-weight="400" text-anchor="start">Cytotoxic</text><rect x="308" y="314" width="8" height="8" rx="2" fill="#F59E0B"/><text x="320" y="322" font-size="9.5" fill="#aeb9cb" font-weight="400" text-anchor="start">Static</text><rect x="409" y="314" width="8" height="8" rx="2" fill="#64748b"/><text x="421" y="322" font-size="9.5" fill="#aeb9cb" font-weight="400" text-anchor="start">No Asset</text><line x1="88" y1="462" x2="492" y2="462" stroke="#27324d"/><text x="106" y="486" font-size="11" fill="#aeb9cb" font-weight="400" text-anchor="start">Asset Coverage 53 / 70 compounds</text><text x="474" y="486" font-size="11" fill="#A855F7" font-weight="600" text-anchor="end">View Plate →</text><circle cx="128" cy="214" r="11" fill="#A855F7" stroke="#fff" stroke-width="1.5"/><text x="128" y="218" font-size="12" fill="#fff" font-weight="700" text-anchor="middle">4</text><circle cx="462" cy="264" r="11" fill="#A855F7" stroke="#fff" stroke-width="1.5"/><text x="462" y="268" font-size="12" fill="#fff" font-weight="700" text-anchor="middle">5</text><circle cx="456" cy="301" r="11" fill="#A855F7" stroke="#fff" stroke-width="1.5"/><text x="456" y="305" font-size="12" fill="#fff" font-weight="700" text-anchor="middle">6</text><circle cx="148" cy="486" r="11" fill="#A855F7" stroke="#fff" stroke-width="1.5"/><text x="148" y="490" font-size="12" fill="#fff" font-weight="700" text-anchor="middle">7</text><circle cx="462" cy="486" r="11" fill="#A855F7" stroke="#fff" stroke-width="1.5"/><text x="462" y="490" font-size="12" fill="#fff" font-weight="700" text-anchor="middle">8</text><rect x="512" y="176" width="404" height="330" rx="10" fill="#131c33" stroke="#27324d" stroke-width="1"/><text x="530" y="214" font-size="22" fill="#E2E8F0" font-weight="700" text-anchor="start">D3_3</text><text x="530" y="238" font-size="11" fill="#8a97ad" font-weight="400" text-anchor="start">Set D3 · Cell U2OS</text><text x="530" y="256" font-size="11" fill="#8a97ad" font-weight="400" text-anchor="start">Dose 10 µM · Observation 48 h</text><text x="530" y="274" font-size="10" fill="#64748b" font-weight="400" text-anchor="start">Created 2026-05-20  Updated 2026-06-04</text><rect x="530" y="296" width="368" height="9" fill="#64748b"/><rect x="530" y="296" width="368" height="9" fill="none" stroke="#27324d"/><rect x="530" y="314" width="8" height="8" rx="2" fill="#22c55e"/><text x="542" y="322" font-size="9.5" fill="#aeb9cb" font-weight="400" text-anchor="start">Asset Only</text><rect x="631" y="314" width="8" height="8" rx="2" fill="#ef4444"/><text x="643" y="322" font-size="9.5" fill="#aeb9cb" font-weight="400" text-anchor="start">Cytotoxic</text><rect x="732" y="314" width="8" height="8" rx="2" fill="#F59E0B"/><text x="744" y="322" font-size="9.5" fill="#aeb9cb" font-weight="400" text-anchor="start">Static</text><rect x="833" y="314" width="8" height="8" rx="2" fill="#64748b"/><text x="845" y="322" font-size="9.5" fill="#aeb9cb" font-weight="400" text-anchor="start">No Asset</text><line x1="512" y1="462" x2="916" y2="462" stroke="#27324d"/><text x="530" y="486" font-size="11" fill="#aeb9cb" font-weight="400" text-anchor="start">Asset Coverage 0 / 70 compounds</text><text x="898" y="486" font-size="11" fill="#A855F7" font-weight="600" text-anchor="end">View Plate →</text></svg>