<svg xmlns="http://www.w3.org/2000/svg" width="540" height="430" viewBox="0 0 540 430" font-family="Malgun Gothic, Segoe UI, sans-serif"><rect width="540" height="430" fill="#0b1220"/><rect x="40" y="20" width="84" height="390" rx="10" fill="#0f1830" stroke="#27324d" stroke-width="1" opacity="1"/><rect x="64.0" y="40" width="36" height="32" rx="8" fill="#2a1b46" stroke="#A855F7" stroke-width="1" opacity="1"/><text x="82.0" y="61" font-size="11" fill="#A855F7" font-weight="700" text-anchor="middle">TPD</text><circle cx="154" cy="56" r="11" fill="#A855F7" stroke="#fff" stroke-width="1.5"/><text x="154" y="60" font-size="12" fill="#fff" font-weight="700" text-anchor="middle">1</text><line x1="104.0" y1="56" x2="142" y2="56" stroke="#27324d"/><path d="M70.0 111 H94.0 a2 2 0 0 1 2 2 V129 a2 2 0 0 1 -2 2 H70.0 a2 2 0 0 1 -2 -2 V115 Z" fill="none" stroke="#A855F7" stroke-width="1.8" stroke-linejoin="round"/><circle cx="154" cy="120" r="11" fill="#A855F7" stroke="#fff" stroke-width="1.5"/><text x="154" y="124" font-size="12" fill="#fff" font-weight="700" text-anchor="middle">2</text><line x1="102.0" y1="120" x2="142" y2="120" stroke="#27324d"/><circle cx="82.0" cy="180" r="9" fill="none" stroke="#8a97ad" stroke-width="1.8"/><circle cx="82.0" cy="176" r="0.8" fill="#8a97ad"/><path d="M82.0 179v5" stroke="#8a97ad" stroke-width="1.8" stroke-linecap="round"/><circle cx="154" cy="180" r="11" fill="#A855F7" stroke="#fff" stroke-width="1.5"/><text x="154" y="184" font-size="12" fill="#fff" font-weight="700" text-anchor="middle">3</text><line x1="100.0" y1="180" x2="142" y2="180" stroke="#27324d"/><rect x="67.0" y="327" width="30" height="26" rx="6" fill="#16203a" stroke="#27324d" stroke-width="1" opacity="1"/><text x="82.0" y="344" font-size="12" fill="#E2E8F0" font-weight="600" text-anchor="middle">한</text><circle cx="154" cy="340" r="11" fill="#A855F7" stroke="#fff" stroke-width="1.5"/><text x="154" y="344" font-size="12" fill="#fff" font-weight="700" text-anchor="middle">4</text><line x1="100.0" y1="340" x2="142" y2="340" stroke="#27324d"/><circle cx="82.0" cy="380" r="10" fill="none" stroke="#E2E8F0" stroke-width="1.5"/><path d="M82.0 370 a10 10 0 0 0 0 20 z" fill="#E2E8F0"/><circle cx="154" cy="380" r="11" fill="#A855F7" stroke="#fff" stroke-width="1.5"/><text x="154" y="384" font-size="12" fill="#fff" font-weight="700" text-anchor="middle">5</text><line x1="100.0" y1="380" x2="142" y2="380" stroke="#27324d"/><text x="174" y="410" font-size="10" fill="#8a97ad" font-weight="400" text-anchor="start">64px icon rail</text></svg>