<svg xmlns="http://www.w3.org/2000/svg" width="560" height="330" viewBox="0 0 560 330" font-family="Malgun Gothic, Segoe UI, sans-serif">
<rect width="560" height="330" fill="#0b1220"/>
<rect x="14" y="14" width="532" height="302" rx="10" fill="#131c33" stroke="#27324d"/>
<text x="34" y="44" font-size="14" font-weight="700" fill="#E2E8F0">① Target Module Dynamics</text>
<rect x="300" y="30" width="38" height="20" rx="10" fill="#0f1830" stroke="#27324d"/>
<text x="319" y="44" font-size="10" font-weight="600" fill="#aeb9cb" text-anchor="middle">0h</text>
<rect x="344" y="30" width="38" height="20" rx="10" fill="#0f1830" stroke="#27324d"/>
<text x="363" y="44" font-size="10" font-weight="600" fill="#aeb9cb" text-anchor="middle">4h</text>
<rect x="388" y="30" width="38" height="20" rx="10" fill="#A855F7" stroke="#27324d"/>
<text x="407" y="44" font-size="10" font-weight="600" fill="#fff" text-anchor="middle">24h</text>
<rect x="436" y="30" width="96" height="20" rx="10" fill="#30255b" stroke="#A855F7"/>
<text x="484" y="44" font-size="9.5" font-weight="700" fill="#A855F7" text-anchor="middle">⊕ Timecourse</text>
<rect x="34" y="64" width="238" height="180" rx="8" fill="#0f1830" stroke="#27324d"/>
<text x="46" y="84" font-size="10.5" fill="#aeb9cb">Landscape</text>
<path d="M50 218 Q 94 142 142 218 Z" fill="#185FA5" opacity="0.35"/>
<path d="M152 218 Q 194 114 240 218 Z" fill="#F59E0B" opacity="0.4"/>
<circle cx="74" cy="194" r="3.4" fill="#185FA5"/>
<circle cx="129" cy="198" r="3.4" fill="#F59E0B"/>
<circle cx="184" cy="182" r="3.4" fill="#F59E0B"/>
<text x="184" y="186" font-size="11" fill="#F59E0B" text-anchor="middle">✚</text>
<circle cx="229" cy="196" r="3.4" fill="#185FA5"/>
<text x="46" y="236" font-size="8.5" fill="#8a97ad">✚ target · dots = communities (modules)</text>
<rect x="286" y="64" width="238" height="180" rx="8" fill="#0f1830" stroke="#27324d"/>
<text x="298" y="84" font-size="10.5" fill="#aeb9cb">PPI Network</text>
<line x1="458" y1="182" x2="397" y2="226" stroke="#64748b" stroke-width="1" opacity="0.5"/>
<line x1="397" y1="226" x2="347" y2="169" stroke="#64748b" stroke-width="1" opacity="0.5"/>
<line x1="347" y1="169" x2="393" y2="112" stroke="#64748b" stroke-width="1" opacity="0.5"/>
<line x1="393" y1="112" x2="460" y2="143" stroke="#64748b" stroke-width="1" opacity="0.5"/>
<line x1="427" y1="200" x2="372" y2="197" stroke="#64748b" stroke-width="1" opacity="0.5"/>
<line x1="372" y1="197" x2="372" y2="141" stroke="#64748b" stroke-width="1" opacity="0.5"/>
<circle cx="458" cy="182" r="5.5" fill="#F59E0B"/>
<circle cx="427" cy="200" r="5.5" fill="#185FA5"/>
<circle cx="397" cy="226" r="5.5" fill="#F59E0B"/>
<circle cx="372" cy="197" r="5.5" fill="#5b6781"/>
<circle cx="347" cy="169" r="5.5" fill="#185FA5"/>
<circle cx="372" cy="141" r="5.5" fill="#F59E0B"/>
<circle cx="393" cy="112" r="5.5" fill="#185FA5"/>
<circle cx="427" cy="123" r="5.5" fill="#5b6781"/>
<circle cx="460" cy="143" r="5.5" fill="#F59E0B"/>
<circle cx="405.0" cy="166.0" r="8" fill="#A855F7" stroke="#fff" stroke-width="1.3"/>
<text x="405.0" y="169.0" font-size="10" fill="#fff" font-weight="700" text-anchor="middle">✚</text>
<text x="298" y="236" font-size="8.5" fill="#8a97ad">color = co-moves ↑(orange)/↓(blue)</text>
<text x="34" y="308" font-size="10.5" fill="#aeb9cb">One-timepoint protein-module map · time buttons load that timepoint raw</text>
</svg>