<svg xmlns="http://www.w3.org/2000/svg" width="620" height="330" viewBox="0 0 620 330" font-family="Malgun Gothic, Segoe UI, sans-serif">
<rect width="620" height="330" fill="#0b1220"/>
<rect x="14" y="14" width="592" height="302" rx="10" fill="#131c33" stroke="#27324d"/>
<text x="34" y="44" font-size="14" font-weight="700" fill="#E2E8F0">② Timecourse</text>
<text x="215" y="44" font-size="9.5" fill="#8a97ad">opt-in · 0h=pre-treatment · 24h modules fixed · color=signal (avg PCC)</text>
<text x="239.0" y="68" font-size="10" fill="#8a97ad" text-anchor="middle">0h</text>
<text x="306.0" y="68" font-size="10" fill="#8a97ad" text-anchor="middle">4h</text>
<text x="373.0" y="68" font-size="10" fill="#8a97ad" text-anchor="middle">24h</text>
<text x="441" y="68" font-size="10" fill="#8a97ad">pattern (auto)</text>
<text x="34" y="99.0" font-size="10.5" font-weight="700" fill="#A855F7">Target community ★</text>
<rect x="210" y="80" width="58" height="30" rx="4" fill="#1f4291" stroke="#A855F7" stroke-width="1.6"/>
<text x="239.0" y="99.0" font-size="9" fill="#aeb9cb" text-anchor="middle">-0.30</text>
<rect x="277" y="80" width="58" height="30" rx="4" fill="#1a2746" stroke="#A855F7" stroke-width="1.6"/>
<text x="306.0" y="99.0" font-size="9" fill="#aeb9cb" text-anchor="middle">-0.05</text>
<rect x="344" y="80" width="58" height="30" rx="4" fill="#cb2527" stroke="#A855F7" stroke-width="1.6"/>
<text x="373.0" y="99.0" font-size="9" fill="#aeb9cb" text-anchor="middle">+0.55</text>
<rect x="429" y="84" width="122" height="22" rx="11" fill="#2d2656" stroke="#A855F7" stroke-width="1"/>
<text x="490" y="99" font-size="9.5" font-weight="600" fill="#A855F7" text-anchor="middle">Flipped −→+</text>
<text x="34" y="138.0" font-size="10.5" font-weight="400" fill="#aeb9cb">Chromatin remodeling</text>
<rect x="210" y="119" width="58" height="30" rx="4" fill="#3a2235" stroke="#27324d" stroke-width="1"/>
<text x="239.0" y="138.0" font-size="9" fill="#aeb9cb" text-anchor="middle">+0.10</text>
<rect x="277" y="119" width="58" height="30" rx="4" fill="#7b242f" stroke="#27324d" stroke-width="1"/>
<text x="306.0" y="138.0" font-size="9" fill="#aeb9cb" text-anchor="middle">+0.30</text>
<rect x="344" y="119" width="58" height="30" rx="4" fill="#dc2626" stroke="#27324d" stroke-width="1"/>
<text x="373.0" y="138.0" font-size="9" fill="#aeb9cb" text-anchor="middle">+0.62</text>
<rect x="429" y="123" width="122" height="22" rx="11" fill="#371d30" stroke="#DC2626" stroke-width="1"/>
<text x="490" y="138" font-size="9.5" font-weight="600" fill="#DC2626" text-anchor="middle">Amplified</text>
<text x="34" y="177.0" font-size="10.5" font-weight="400" fill="#aeb9cb">mRNA splicing</text>
<rect x="210" y="158" width="58" height="30" rx="4" fill="#2a2236" stroke="#27324d" stroke-width="1"/>
<text x="239.0" y="177.0" font-size="9" fill="#aeb9cb" text-anchor="middle">+0.05</text>
<rect x="277" y="158" width="58" height="30" rx="4" fill="#9b242c" stroke="#27324d" stroke-width="1"/>
<text x="306.0" y="177.0" font-size="9" fill="#aeb9cb" text-anchor="middle">+0.40</text>
<rect x="344" y="158" width="58" height="30" rx="4" fill="#cb2527" stroke="#27324d" stroke-width="1"/>
<text x="373.0" y="177.0" font-size="9" fill="#aeb9cb" text-anchor="middle">+0.55</text>
<rect x="429" y="162" width="122" height="22" rx="11" fill="#371d30" stroke="#DC2626" stroke-width="1"/>
<text x="490" y="177" font-size="9.5" font-weight="600" fill="#DC2626" text-anchor="middle">Formed</text>
<text x="34" y="216.0" font-size="10.5" font-weight="400" fill="#aeb9cb">Stress response</text>
<rect x="210" y="197" width="58" height="30" rx="4" fill="#bb2529" stroke="#27324d" stroke-width="1"/>
<text x="239.0" y="216.0" font-size="9" fill="#aeb9cb" text-anchor="middle">+0.50</text>
<rect x="277" y="197" width="58" height="30" rx="4" fill="#5a2332" stroke="#27324d" stroke-width="1"/>
<text x="306.0" y="216.0" font-size="9" fill="#aeb9cb" text-anchor="middle">+0.20</text>
<rect x="344" y="197" width="58" height="30" rx="4" fill="#262236" stroke="#27324d" stroke-width="1"/>
<text x="373.0" y="216.0" font-size="9" fill="#aeb9cb" text-anchor="middle">+0.04</text>
<rect x="429" y="201" width="122" height="22" rx="11" fill="#162854" stroke="#2563EB" stroke-width="1"/>
<text x="490" y="216" font-size="9.5" font-weight="600" fill="#2563EB" text-anchor="middle">Dissolved</text>
<text x="34" y="255.0" font-size="10.5" font-weight="400" fill="#aeb9cb">Translation</text>
<rect x="210" y="236" width="58" height="30" rx="4" fill="#7b242f" stroke="#27324d" stroke-width="1"/>
<text x="239.0" y="255.0" font-size="9" fill="#aeb9cb" text-anchor="middle">+0.30</text>
<rect x="277" y="236" width="58" height="30" rx="4" fill="#81242e" stroke="#27324d" stroke-width="1"/>
<text x="306.0" y="255.0" font-size="9" fill="#aeb9cb" text-anchor="middle">+0.32</text>
<rect x="344" y="236" width="58" height="30" rx="4" fill="#7e242e" stroke="#27324d" stroke-width="1"/>
<text x="373.0" y="255.0" font-size="9" fill="#aeb9cb" text-anchor="middle">+0.31</text>
<rect x="429" y="240" width="122" height="22" rx="11" fill="#1f2941" stroke="#5b6781" stroke-width="1"/>
<text x="490" y="255" font-size="9.5" font-weight="600" fill="#5b6781" text-anchor="middle">Stable</text>
<text x="34" y="296" font-size="9.5" fill="#8a97ad">color:</text>
<rect x="64" y="286" width="14" height="10" fill="#2563eb"/>
<rect x="78" y="286" width="14" height="10" fill="#2256c7"/>
<rect x="92" y="286" width="14" height="10" fill="#2049a3"/>
<rect x="106" y="286" width="14" height="10" fill="#1e3c7f"/>
<rect x="120" y="286" width="14" height="10" fill="#1c2f5b"/>
<rect x="134" y="286" width="14" height="10" fill="#1a2238"/>
<rect x="148" y="286" width="14" height="10" fill="#402234"/>
<rect x="162" y="286" width="14" height="10" fill="#672330"/>
<rect x="176" y="286" width="14" height="10" fill="#8e242d"/>
<rect x="190" y="286" width="14" height="10" fill="#b52529"/>
<rect x="204" y="286" width="14" height="10" fill="#dc2626"/>
<text x="64" y="306" font-size="8.5" fill="#2563EB">−(co ↓)</text>
<text x="204" y="306" font-size="8.5" fill="#DC2626" text-anchor="end">+(co ↑)</text>
<text x="300" y="287" font-size="9.5" fill="#aeb9cb">★ = target community (the module the target belongs to) · chip = auto pattern</text>
<text x="300" y="303" font-size="9" fill="#8a97ad">target in no module (isolated) → no ★ row, shown as “no target community”</text>
</svg>