<svg xmlns="http://www.w3.org/2000/svg" width="860" height="640" viewBox="0 0 860 640" font-family="Malgun Gothic, Segoe UI, sans-serif">
<rect width="860" height="640" fill="#0b1220"/>
<rect x="16" y="16" width="828" height="608" rx="12" fill="#131c33" stroke="#27324d"/>
<text x="40" y="50" font-size="16" font-weight="700" fill="#E2E8F0">Target Module Dynamics — 시간축 비교</text>
<text x="40" y="70" font-size="11" fill="#8a97ad">지도 모양은 24h 기준 고정 · 시간 버튼은 높이·색(참여율)만 바꿈</text>
<rect x="610" y="36" width="60" height="26" rx="13" fill="#0f1830" stroke="#27324d"/>
<text x="640" y="53" font-size="12" font-weight="600" fill="#aeb9cb" text-anchor="middle">0h</text>
<rect x="680" y="36" width="60" height="26" rx="13" fill="#0f1830" stroke="#27324d"/>
<text x="710" y="53" font-size="12" font-weight="600" fill="#aeb9cb" text-anchor="middle">4h</text>
<rect x="750" y="36" width="60" height="26" rx="13" fill="#A855F7" stroke="#27324d"/>
<text x="780" y="53" font-size="12" font-weight="600" fill="#fff" text-anchor="middle">24h</text>
<text x="40" y="98" font-size="13" font-weight="700" fill="#E2E8F0">① 모듈 × 시점 히트맵 — 어떤 모듈이 언제 켜지나 (색 = 참여율)</text>
<text x="274.0" y="116" font-size="11" fill="#8a97ad" text-anchor="middle">0h</text>
<text x="369.0" y="116" font-size="11" fill="#8a97ad" text-anchor="middle">4h</text>
<text x="464.0" y="116" font-size="11" fill="#8a97ad" text-anchor="middle">24h</text>
<text x="40" y="145.0" font-size="11" font-weight="400" fill="#aeb9cb">Chromatin remodeling</text>
<rect x="230" y="128" width="88" height="26" rx="4" fill="#28274b" stroke="#27324d" stroke-width="1"/>
<text x="274.0" y="145.0" font-size="10" fill="#8a97ad" text-anchor="middle">10%</text>
<rect x="325" y="128" width="88" height="26" rx="4" fill="#59388d" stroke="#27324d" stroke-width="1"/>
<text x="369.0" y="145.0" font-size="10" fill="#8a97ad" text-anchor="middle">45%</text>
<rect x="420" y="128" width="88" height="26" rx="4" fill="#9c50e7" stroke="#27324d" stroke-width="1"/>
<text x="464.0" y="145.0" font-size="10" fill="#fff" text-anchor="middle">92%</text>
<text x="40" y="178.0" font-size="11" font-weight="400" fill="#aeb9cb">mRNA splicing</text>
<rect x="230" y="161" width="88" height="26" rx="4" fill="#2b284e" stroke="#27324d" stroke-width="1"/>
<text x="274.0" y="178.0" font-size="10" fill="#8a97ad" text-anchor="middle">12%</text>
<rect x="325" y="161" width="88" height="26" rx="4" fill="#8b4ad0" stroke="#27324d" stroke-width="1"/>
<text x="369.0" y="178.0" font-size="10" fill="#fff" text-anchor="middle">80%</text>
<rect x="420" y="161" width="88" height="26" rx="4" fill="#944ddc" stroke="#27324d" stroke-width="1"/>
<text x="464.0" y="178.0" font-size="10" fill="#fff" text-anchor="middle">86%</text>
<text x="40" y="211.0" font-size="11" font-weight="700" fill="#A855F7">Target module · BRD3 ★</text>
<rect x="230" y="194" width="88" height="26" rx="4" fill="#212441" stroke="#A855F7" stroke-width="1.6"/>
<text x="274.0" y="211.0" font-size="10" fill="#8a97ad" text-anchor="middle">5%</text>
<rect x="325" y="194" width="88" height="26" rx="4" fill="#2f2954" stroke="#A855F7" stroke-width="1.6"/>
<text x="369.0" y="211.0" font-size="10" fill="#8a97ad" text-anchor="middle">15%</text>
<rect x="420" y="194" width="88" height="26" rx="4" fill="#a052ed" stroke="#A855F7" stroke-width="1.6"/>
<text x="464.0" y="211.0" font-size="10" fill="#fff" text-anchor="middle">95%</text>
<text x="40" y="244.0" font-size="11" font-weight="400" fill="#aeb9cb">Ubiquitin–proteasome</text>
<rect x="230" y="227" width="88" height="26" rx="4" fill="#362c5e" stroke="#27324d" stroke-width="1"/>
<text x="274.0" y="244.0" font-size="10" fill="#8a97ad" text-anchor="middle">20%</text>
<rect x="325" y="227" width="88" height="26" rx="4" fill="#613b97" stroke="#27324d" stroke-width="1"/>
<text x="369.0" y="244.0" font-size="10" fill="#8a97ad" text-anchor="middle">50%</text>
<rect x="420" y="227" width="88" height="26" rx="4" fill="#7d45bd" stroke="#27324d" stroke-width="1"/>
<text x="464.0" y="244.0" font-size="10" fill="#fff" text-anchor="middle">70%</text>
<text x="40" y="277.0" font-size="11" font-weight="400" fill="#aeb9cb">Translation</text>
<rect x="230" y="260" width="88" height="26" rx="4" fill="#6c3fa6" stroke="#27324d" stroke-width="1"/>
<text x="274.0" y="277.0" font-size="10" fill="#fff" text-anchor="middle">57%</text>
<rect x="325" y="260" width="88" height="26" rx="4" fill="#6f40aa" stroke="#27324d" stroke-width="1"/>
<text x="369.0" y="277.0" font-size="10" fill="#fff" text-anchor="middle">60%</text>
<rect x="420" y="260" width="88" height="26" rx="4" fill="#6f40aa" stroke="#27324d" stroke-width="1"/>
<text x="464.0" y="277.0" font-size="10" fill="#fff" text-anchor="middle">60%</text>
<text x="40" y="310.0" font-size="11" font-weight="400" fill="#aeb9cb">DNA replication</text>
<rect x="230" y="293" width="88" height="26" rx="4" fill="#2f2954" stroke="#27324d" stroke-width="1"/>
<text x="274.0" y="310.0" font-size="10" fill="#8a97ad" text-anchor="middle">15%</text>
<rect x="325" y="293" width="88" height="26" rx="4" fill="#392d62" stroke="#27324d" stroke-width="1"/>
<text x="369.0" y="310.0" font-size="10" fill="#8a97ad" text-anchor="middle">22%</text>
<rect x="420" y="293" width="88" height="26" rx="4" fill="#4a3378" stroke="#27324d" stroke-width="1"/>
<text x="464.0" y="310.0" font-size="10" fill="#8a97ad" text-anchor="middle">34%</text>
<text x="40" y="348" font-size="13" font-weight="700" fill="#E2E8F0">② 타깃 Gathering — 흩어졌다(0h) → 모였다(24h). 중심=타깃, 반지름=타깃과의 PCC</text>
<text x="40" y="364" font-size="10" fill="#8a97ad">각도(자리)는 고정 · 반지름만 움직임 (좌표계 안 바뀜 = 변화맹 아님)</text>
<rect x="40" y="378" width="250" height="210" rx="8" fill="#0f1830" stroke="#27324d"/>
<circle cx="165.0" cy="477.0" r="20" fill="none" stroke="#27324d" stroke-dasharray="2 4"/>
<circle cx="165.0" cy="477.0" r="54.0" fill="none" stroke="#27324d" stroke-dasharray="2 4"/>
<circle cx="165.0" cy="477.0" r="88" fill="none" stroke="#27324d" stroke-dasharray="2 4"/>
<circle cx="242.6" cy="501.0" r="3.4" fill="#185FA5" opacity="0.92"/>
<circle cx="233.1" cy="518.0" r="3.4" fill="#F59E0B" opacity="0.92"/>
<circle cx="220.1" cy="531.9" r="3.4" fill="#F59E0B" opacity="0.92"/>
<circle cx="204.5" cy="542.0" r="3.4" fill="#185FA5" opacity="0.92"/>
<circle cx="187.3" cy="548.0" r="3.4" fill="#F59E0B" opacity="0.92"/>
<circle cx="170.1" cy="558.0" r="3.4" fill="#F59E0B" opacity="0.92"/>
<circle cx="150.8" cy="555.2" r="3.4" fill="#185FA5" opacity="0.92"/>
<circle cx="133.2" cy="548.0" r="3.4" fill="#F59E0B" opacity="0.92"/>
<circle cx="118.2" cy="537.0" r="3.4" fill="#F59E0B" opacity="0.92"/>
<circle cx="106.5" cy="523.0" r="3.4" fill="#185FA5" opacity="0.92"/>
<circle cx="91.0" cy="510.5" r="3.4" fill="#F59E0B" opacity="0.92"/>
<circle cx="86.8" cy="491.5" r="3.4" fill="#F59E0B" opacity="0.92"/>
<circle cx="87.3" cy="472.5" r="3.4" fill="#185FA5" opacity="0.92"/>
<circle cx="92.3" cy="454.5" r="3.4" fill="#F59E0B" opacity="0.92"/>
<circle cx="101.3" cy="438.6" r="3.4" fill="#F59E0B" opacity="0.92"/>
<circle cx="107.5" cy="419.7" r="3.4" fill="#185FA5" opacity="0.92"/>
<circle cx="122.7" cy="407.3" r="3.4" fill="#F59E0B" opacity="0.92"/>
<circle cx="141.1" cy="400.8" r="3.4" fill="#F59E0B" opacity="0.92"/>
<circle cx="160.1" cy="399.0" r="3.4" fill="#185FA5" opacity="0.92"/>
<circle cx="178.6" cy="401.8" r="3.4" fill="#F59E0B" opacity="0.92"/>
<circle cx="199.0" cy="401.0" r="3.4" fill="#F59E0B" opacity="0.92"/>
<circle cx="215.2" cy="412.7" r="3.4" fill="#185FA5" opacity="0.92"/>
<circle cx="227.7" cy="427.6" r="3.4" fill="#F59E0B" opacity="0.92"/>
<circle cx="236.2" cy="444.8" r="3.4" fill="#F59E0B" opacity="0.92"/>
<circle cx="240.2" cy="463.1" r="3.4" fill="#185FA5" opacity="0.92"/>
<circle cx="248.1" cy="481.9" r="3.4" fill="#F59E0B" opacity="0.92"/>
<circle cx="165.0" cy="477.0" r="9" fill="#A855F7" stroke="#fff" stroke-width="1.4"/>
<text x="165.0" y="481.0" font-size="12" fill="#fff" font-weight="700" text-anchor="middle">✚</text>
<text x="52" y="398" font-size="12" font-weight="700" fill="#E2E8F0">0h</text>
<rect x="172" y="386" width="110" height="18" rx="9" fill="#2d374f" stroke="#27324d"/>
<text x="227" y="398" font-size="9.5" fill="#8a97ad" text-anchor="middle">isolated</text>
<text x="52" y="578" font-size="9.5" fill="#aeb9cb">코호트(중심부): 0</text>
<rect x="304" y="378" width="250" height="210" rx="8" fill="#0f1830" stroke="#27324d"/>
<circle cx="429.0" cy="477.0" r="20" fill="none" stroke="#27324d" stroke-dasharray="2 4"/>
<circle cx="429.0" cy="477.0" r="54.0" fill="none" stroke="#27324d" stroke-dasharray="2 4"/>
<circle cx="429.0" cy="477.0" r="88" fill="none" stroke="#27324d" stroke-dasharray="2 4"/>
<circle cx="485.8" cy="494.6" r="3.4" fill="#185FA5" opacity="0.92"/>
<circle cx="478.5" cy="506.8" r="3.4" fill="#F59E0B" opacity="0.92"/>
<circle cx="468.7" cy="516.5" r="3.4" fill="#F59E0B" opacity="0.92"/>
<circle cx="457.2" cy="523.4" r="3.4" fill="#185FA5" opacity="0.92"/>
<circle cx="444.8" cy="527.2" r="3.4" fill="#F59E0B" opacity="0.92"/>
<circle cx="432.7" cy="536.3" r="3.4" fill="#F59E0B" opacity="0.92"/>
<circle cx="418.7" cy="533.8" r="3.4" fill="#185FA5" opacity="0.92"/>
<circle cx="406.1" cy="528.2" r="3.4" fill="#F59E0B" opacity="0.92"/>
<circle cx="395.6" cy="519.8" r="3.4" fill="#F59E0B" opacity="0.92"/>
<circle cx="387.6" cy="509.6" r="3.4" fill="#185FA5" opacity="0.92"/>
<circle cx="374.8" cy="501.5" r="3.4" fill="#F59E0B" opacity="0.92"/>
<circle cx="372.2" cy="487.5" r="3.4" fill="#F59E0B" opacity="0.92"/>
<circle cx="373.1" cy="473.7" r="3.4" fill="#185FA5" opacity="0.92"/>
<circle cx="377.1" cy="460.9" r="3.4" fill="#F59E0B" opacity="0.92"/>
<circle cx="383.9" cy="449.9" r="3.4" fill="#F59E0B" opacity="0.92"/>
<circle cx="386.9" cy="435.1" r="3.4" fill="#185FA5" opacity="0.92"/>
<circle cx="388.4" cy="410.2" r="3.4" fill="#F59E0B" opacity="0.92"/>
<circle cx="406.1" cy="404.1" r="3.4" fill="#F59E0B" opacity="0.92"/>
<circle cx="424.3" cy="402.4" r="3.4" fill="#185FA5" opacity="0.92"/>
<circle cx="442.0" cy="405.1" r="3.4" fill="#F59E0B" opacity="0.92"/>
<circle cx="461.6" cy="404.1" r="3.4" fill="#F59E0B" opacity="0.92"/>
<circle cx="477.1" cy="415.4" r="3.4" fill="#185FA5" opacity="0.92"/>
<circle cx="489.1" cy="429.7" r="3.4" fill="#F59E0B" opacity="0.92"/>
<circle cx="497.1" cy="446.2" r="3.4" fill="#F59E0B" opacity="0.92"/>
<circle cx="500.8" cy="463.7" r="3.4" fill="#185FA5" opacity="0.92"/>
<circle cx="508.7" cy="481.7" r="3.4" fill="#F59E0B" opacity="0.92"/>
<circle cx="429.0" cy="477.0" r="9" fill="#A855F7" stroke="#fff" stroke-width="1.4"/>
<text x="429.0" y="481.0" font-size="12" fill="#fff" font-weight="700" text-anchor="middle">✚</text>
<text x="316" y="398" font-size="12" font-weight="700" fill="#E2E8F0">4h</text>
<rect x="436" y="386" width="110" height="18" rx="9" fill="#2d374f" stroke="#27324d"/>
<text x="491" y="398" font-size="9.5" fill="#8a97ad" text-anchor="middle">isolated</text>
<text x="316" y="578" font-size="9.5" fill="#aeb9cb">코호트(중심부): 0</text>
<rect x="568" y="378" width="250" height="210" rx="8" fill="#0f1830" stroke="#27324d"/>
<circle cx="693.0" cy="477.0" r="20" fill="none" stroke="#27324d" stroke-dasharray="2 4"/>
<circle cx="693.0" cy="477.0" r="54.0" fill="none" stroke="#27324d" stroke-dasharray="2 4"/>
<circle cx="693.0" cy="477.0" r="88" fill="none" stroke="#27324d" stroke-dasharray="2 4"/>
<circle cx="718.6" cy="484.9" r="3.4" fill="#185FA5" opacity="0.92"/>
<circle cx="714.5" cy="489.9" r="3.4" fill="#F59E0B" opacity="0.92"/>
<circle cx="709.6" cy="493.5" r="3.4" fill="#F59E0B" opacity="0.92"/>
<circle cx="704.3" cy="495.5" r="3.4" fill="#185FA5" opacity="0.92"/>
<circle cx="699.4" cy="497.4" r="3.4" fill="#F59E0B" opacity="0.92"/>
<circle cx="694.7" cy="503.7" r="3.4" fill="#F59E0B" opacity="0.92"/>
<circle cx="688.5" cy="501.7" r="3.4" fill="#185FA5" opacity="0.92"/>
<circle cx="683.4" cy="498.4" r="3.4" fill="#F59E0B" opacity="0.92"/>
<circle cx="679.7" cy="494.1" r="3.4" fill="#F59E0B" opacity="0.92"/>
<circle cx="676.2" cy="490.2" r="3.4" fill="#185FA5" opacity="0.92"/>
<circle cx="668.6" cy="488.0" r="3.4" fill="#F59E0B" opacity="0.92"/>
<circle cx="668.3" cy="481.6" r="3.4" fill="#F59E0B" opacity="0.92"/>
<circle cx="669.6" cy="475.6" r="3.4" fill="#185FA5" opacity="0.92"/>
<circle cx="672.3" cy="470.6" r="3.4" fill="#F59E0B" opacity="0.92"/>
<circle cx="674.7" cy="466.0" r="3.4" fill="#F59E0B" opacity="0.92"/>
<circle cx="674.0" cy="458.1" r="3.4" fill="#185FA5" opacity="0.92"/>
<circle cx="654.6" cy="413.7" r="3.4" fill="#F59E0B" opacity="0.92"/>
<circle cx="671.3" cy="408.0" r="3.4" fill="#F59E0B" opacity="0.92"/>
<circle cx="688.6" cy="406.5" r="3.4" fill="#185FA5" opacity="0.92"/>
<circle cx="705.3" cy="409.1" r="3.4" fill="#F59E0B" opacity="0.92"/>
<circle cx="723.9" cy="407.9" r="3.4" fill="#F59E0B" opacity="0.92"/>
<circle cx="738.6" cy="418.6" r="3.4" fill="#185FA5" opacity="0.92"/>
<circle cx="749.9" cy="432.3" r="3.4" fill="#F59E0B" opacity="0.92"/>
<circle cx="757.4" cy="447.9" r="3.4" fill="#F59E0B" opacity="0.92"/>
<circle cx="760.8" cy="464.4" r="3.4" fill="#185FA5" opacity="0.92"/>
<circle cx="768.6" cy="481.4" r="3.4" fill="#F59E0B" opacity="0.92"/>
<circle cx="693.0" cy="477.0" r="9" fill="#A855F7" stroke="#fff" stroke-width="1.4"/>
<text x="693.0" y="481.0" font-size="12" fill="#fff" font-weight="700" text-anchor="middle">✚</text>
<text x="580" y="398" font-size="12" font-weight="700" fill="#E2E8F0">24h</text>
<rect x="700" y="386" width="110" height="18" rx="9" fill="#352761" stroke="#27324d"/>
<text x="755" y="398" font-size="9.5" fill="#A855F7" text-anchor="middle">in_community</text>
<text x="580" y="578" font-size="9.5" fill="#aeb9cb">코호트(중심부): 16</text>
<circle cx="46" cy="606" r="4" fill="#F59E0B"/><text x="56" y="610" font-size="9.5" fill="#8a97ad">함께 ↑ (activated)</text>
<circle cx="190" cy="606" r="4" fill="#185FA5"/><text x="200" y="610" font-size="9.5" fill="#8a97ad">함께 ↓ (suppressed/co-degraded)</text>
<text x="430" y="610" font-size="9.5" fill="#8a97ad">✚ = 타깃 · 점선 링 = 타깃과의 상관 거리</text>
</svg>